<svg width="24" height="24" viewBox="0 0 24 24" fill="none" xmlns="http://www.w3.org/2000/svg">
<g clip-path="url(#clip0)">
<path d="M22.4348 4.99946H17.7143C17.5843 3.63317 16.926 2.36283 15.8687 1.43784C14.8114 0.512839 13.4316 0 12 0C10.5684 0 9.18856 0.512839 8.1313 1.43784C7.07403 2.36283 6.41574 3.63317 6.28565 4.99946H1.56522C1.15023 4.99989 0.752375 5.15806 0.458937 5.43928C0.165499 5.7205 0.000448837 6.1018 0 6.4995V22.5C0.000448837 22.8977 0.165499 23.279 0.458937 23.5602C0.752375 23.8414 1.15023 23.9996 1.56522 24H22.4348C22.8498 23.9996 23.2476 23.8414 23.5411 23.5602C23.8345 23.279 23.9996 22.8977 24 22.5V6.4995C23.9996 6.1018 23.8345 5.7205 23.5411 5.43928C23.2476 5.15806 22.8498 4.99989 22.4348 4.99946ZM12 0.999342C13.1545 1.00081 14.2681 1.40932 15.1286 2.14701C15.9891 2.8847 16.5363 3.90001 16.6659 4.99946H7.33409C7.46373 3.90001 8.01093 2.8847 8.8714 2.14701C9.73188 1.40932 10.8455 1.00081 12 0.999342ZM22.9565 22.5C22.9564 22.6325 22.9014 22.7596 22.8036 22.8534C22.7057 22.9471 22.5731 22.9998 22.4348 23H1.56522C1.42689 22.9998 1.29426 22.9471 1.19644 22.8534C1.09863 22.7596 1.04362 22.6325 1.04348 22.5V6.4995C1.04362 6.36693 1.09863 6.23982 1.19644 6.14608C1.29426 6.05234 1.42689 5.99962 1.56522 5.99949H22.4348C22.5731 5.99962 22.7057 6.05234 22.8036 6.14608C22.9014 6.23982 22.9564 6.36693 22.9565 6.4995V22.5Z" fill="black" stroke="black"/>
</g>
<defs>
<clipPath id="clip0">
<rect width="24" height="24" fill="white"/>
</clipPath>
</defs>
</svg>
