<svg width="24" height="24" viewBox="0 0 24 24" fill="none" xmlns="http://www.w3.org/2000/svg">
<path fill-rule="evenodd" clip-rule="evenodd" d="M0 9.8544C0 15.3122 4.33523 19.7088 9.7169 19.7088C12.1378 19.7088 14.347 18.8191 16.0451 17.3433L22.6089 24L23.6658 22.9281L17.1019 16.2714C18.5567 14.5494 19.4338 12.3093 19.4338 9.8544C19.4338 4.39658 15.0986 0 9.7169 0C4.33523 0 0 4.39658 0 9.8544ZM1.49491 9.8544C1.49491 5.23041 5.15743 1.51606 9.7169 1.51606C14.2764 1.51606 17.9389 5.23041 17.9389 9.8544C17.9389 14.4784 14.2764 18.1927 9.7169 18.1927C5.15743 18.1927 1.49491 14.4784 1.49491 9.8544Z" fill="black"/>
</svg>
