<svg width="106" height="106" viewBox="0 0 106 106" fill="none" xmlns="http://www.w3.org/2000/svg">
<path d="M93.2583 76.3781C90.5009 72.2633 86.7273 66.6287 86.7273 50.5909V43.3637C86.7273 28.1159 76.5491 15.2157 62.6363 11.0571V9.63645C62.6363 4.32169 58.3124 0 53.0001 0C47.6879 0 43.3637 4.32169 43.3637 9.63645V11.0571C29.4514 15.2157 19.2727 28.1159 19.2727 43.3637V50.5909C19.2727 66.6287 15.4991 72.2633 12.7417 76.3781C11.1465 78.7613 9.63623 81.0128 9.63623 84.3182C9.63623 92.1722 26.0094 94.9283 39.2841 95.8775C41.1454 101.836 46.609 106 52.9999 106C59.3908 106 64.8544 101.836 66.7157 95.8775C79.9904 94.9283 96.3636 92.1722 96.3636 84.3182C96.3638 81.0128 94.8533 78.7613 93.2583 76.3781ZM48.1818 9.63645C48.1818 6.98042 50.3416 4.81834 52.9999 4.81834C55.6582 4.81834 57.8182 6.9802 57.8182 9.63645V10.0213C56.2402 9.79409 54.64 9.63645 53.0001 9.63645C51.3602 9.63645 49.76 9.79409 48.182 10.0213V9.63645H48.1818ZM53.0001 101.182C49.3991 101.182 46.2365 99.1946 44.5937 96.1799C48.0074 96.324 50.9717 96.3638 53.0001 96.3638C55.029 96.3638 57.993 96.324 61.407 96.1799C59.764 99.1946 56.6011 101.182 53.0001 101.182ZM53.0001 91.5454C30.9371 91.5454 14.4546 87.7294 14.4546 84.3182C14.4546 82.5561 15.1981 81.3679 16.7461 79.0601C19.6679 74.6937 24.091 68.0945 24.091 50.5909V43.3637C24.091 27.4223 37.0588 14.4546 53.0001 14.4546C68.9415 14.4546 81.9092 27.4223 81.9092 43.3637V50.5909C81.9092 68.0945 86.3321 74.6937 89.2542 79.0601C90.8022 81.3681 91.5457 82.5561 91.5457 84.3182C91.5455 87.7297 75.063 91.5454 53.0001 91.5454Z" fill="white"/>
</svg>
