<svg width="38" height="38" viewBox="0 0 38 38" fill="none" xmlns="http://www.w3.org/2000/svg">
<g clip-path="url(#clip0)">
<path d="M19.2882 0.809647C9.04455 0.809647 0.709229 9.13505 0.709229 19.3705C0.709229 29.6059 9.04455 37.9313 19.2882 37.9313C29.5318 37.9313 37.8671 29.6059 37.8671 19.3705C37.8671 9.13505 29.5318 0.809647 19.2882 0.809647ZM19.2882 36.695C9.72699 36.695 1.94898 28.9229 1.94898 19.3705C1.94898 9.81803 9.72699 2.04596 19.2882 2.04596C28.8493 2.04596 36.6273 9.81803 36.6273 19.3705C36.6273 28.9229 28.8493 36.695 19.2882 36.695Z" fill="black"/>
<path d="M23.3434 8.95161H20.2521C16.315 8.91225 15.8122 11.3467 15.8122 13.9813V15.8972H14.0742C13.9957 15.8867 13.9158 15.8944 13.8407 15.9198C13.7656 15.9452 13.6974 15.9875 13.6414 16.0435C13.5853 16.0995 13.543 16.1676 13.5176 16.2426C13.4922 16.3176 13.4844 16.3975 13.4949 16.476V19.9487C13.4844 20.0272 13.4922 20.1071 13.5176 20.1821C13.543 20.2571 13.5853 20.3252 13.6414 20.3812C13.6974 20.4372 13.7656 20.4795 13.8407 20.5049C13.9158 20.5303 13.9957 20.538 14.0742 20.5275H15.8122V29.2095C15.8025 29.2881 15.811 29.3679 15.8369 29.4427C15.8629 29.5176 15.9056 29.5855 15.9618 29.6414C16.018 29.6972 16.0863 29.7395 16.1614 29.765C16.2364 29.7904 16.3164 29.7984 16.395 29.7883H19.9347C20.2765 29.8276 20.5534 29.551 20.4445 29.2095L20.4468 20.5275H23.3434C23.422 20.538 23.5019 20.5303 23.5769 20.5049C23.652 20.4795 23.7202 20.4372 23.7763 20.3812C23.8323 20.3252 23.8747 20.2571 23.9001 20.1821C23.9255 20.1071 23.9332 20.0272 23.9227 19.9487V16.476C23.9332 16.3975 23.9255 16.3176 23.9001 16.2426C23.8747 16.1676 23.8323 16.0995 23.7763 16.0435C23.7202 15.9875 23.652 15.9452 23.5769 15.9198C23.5019 15.8944 23.422 15.8867 23.3434 15.8972H20.4433L20.4468 14.1608C20.5592 13.4211 20.5592 13.5415 21.2463 13.582H23.3191C23.4801 13.5461 23.6516 13.5658 23.7721 13.4489C23.8926 13.3319 23.9621 13.1722 23.9216 13.0032V9.5304C23.9323 9.45198 23.9247 9.37216 23.8994 9.29714C23.8742 9.22213 23.8319 9.15396 23.776 9.09794C23.72 9.04192 23.6519 8.99957 23.5768 8.97419C23.5018 8.9488 23.4219 8.94108 23.3434 8.95161V8.95161ZM22.7235 12.3596L21.2706 12.304C19.4712 12.304 19.3206 13.2798 19.3206 14.2788L19.3159 16.4736C19.3158 16.5549 19.3317 16.6354 19.3627 16.7106C19.3937 16.7857 19.4393 16.854 19.4968 16.9115C19.5542 16.969 19.6225 17.0147 19.6976 17.0458C19.7728 17.0769 19.8533 17.093 19.9347 17.093H22.7641V19.3294H19.937C19.7728 19.3294 19.6153 19.3945 19.4991 19.5104C19.3829 19.6263 19.3174 19.7835 19.3171 19.9476L19.3159 28.6307H16.9708V19.9487C16.9708 19.6072 16.738 19.3306 16.395 19.3306H14.6535V17.0941H16.395C16.4763 17.0942 16.5568 17.0783 16.632 17.0474C16.7071 17.0164 16.7754 16.9709 16.833 16.9135C16.9488 16.7966 16.9697 16.6392 16.9697 16.4748V13.9802C16.9697 11.3849 17.4946 10.1486 20.251 10.1486H22.7224V12.3596H22.7235Z" fill="black"/>
</g>
<defs>
<clipPath id="clip0">
<rect width="38" height="37.9654" fill="white"/>
</clipPath>
</defs>
</svg>
