<svg width="32" height="32" viewBox="0 0 32 32" fill="none" xmlns="http://www.w3.org/2000/svg">
<g clip-path="url(#clip0)">
<path d="M31.2853 6.60444C31.0267 4.97608 29.4801 3.49822 27.8343 3.30964C19.9668 2.45227 12.0296 2.45237 4.16217 3.30995C2.52003 3.49822 0.973582 4.97592 0.714086 6.60784C-0.238266 12.8285 -0.238109 19.1579 0.71455 25.3785C0.973427 27.007 2.52003 28.4847 4.16558 28.6733C8.09579 29.1018 12.0464 29.3164 15.9999 29.3161C19.9534 29.3163 23.904 29.1016 27.8343 28.6729L27.8374 28.6726C29.4798 28.4847 31.0266 27.0068 31.2859 25.3747C32.2382 19.1541 32.2379 12.8248 31.2853 6.60428V6.60444ZM30.0621 25.1841C29.8907 26.2618 28.7868 27.3162 27.6988 27.4419C19.9233 28.2894 12.0787 28.2895 4.30322 27.4422C3.2146 27.3174 2.10927 26.2624 1.93849 25.1877C1.00535 19.0936 1.00515 12.8929 1.93787 6.79875C2.10927 5.72051 3.2146 4.66518 4.29997 4.54085C12.0758 3.69326 19.9206 3.69316 27.6965 4.54054C28.7854 4.66533 29.8907 5.72051 30.0613 6.79519C30.9945 12.8893 30.9947 19.09 30.062 25.1841H30.0621ZM21.2981 15.4761L13.8662 10.5215C13.7729 10.4593 13.6645 10.4236 13.5526 10.4182C13.4406 10.4128 13.3292 10.4378 13.2304 10.4907C13.1316 10.5436 13.0489 10.6224 12.9913 10.7185C12.9337 10.8147 12.9033 10.9247 12.9033 11.0368V20.946C12.9033 21.0581 12.9337 21.1681 12.9913 21.2642C13.0489 21.3604 13.1316 21.4391 13.2304 21.492C13.3292 21.5449 13.4406 21.57 13.5526 21.5645C13.6645 21.5591 13.7729 21.5234 13.8662 21.4612L21.2981 16.5066C21.3829 16.4501 21.4524 16.3735 21.5005 16.2836C21.5486 16.1937 21.5738 16.0933 21.5738 15.9914C21.5738 15.8894 21.5486 15.789 21.5005 15.6992C21.4524 15.6093 21.3829 15.5326 21.2981 15.4761ZM14.1419 19.7887V12.194L19.8382 15.9914L14.1419 19.7887Z" fill="black"/>
</g>
<defs>
<clipPath id="clip0">
<rect width="32" height="32" fill="white"/>
</clipPath>
</defs>
</svg>
